<mxfile host="app.diagrams.net" modified="2023-08-06T01:53:18.760Z" agent="Mozilla/5.0 (Macintosh; Intel Mac OS X 10_15_7) AppleWebKit/605.1.15 (KHTML, like Gecko) Version/16.3 Safari/605.1.15" etag="Qm6lNqJ5nXhN5Z8g8gen" version="21.6.6" type="github">
  <diagram id="C5RBs43oDa-KdzZeNtuy" name="Page-1">
    <mxGraphModel dx="708" dy="408" grid="1" gridSize="10" guides="1" tooltips="1" connect="1" arrows="1" fold="1" page="1" pageScale="1" pageWidth="827" pageHeight="1169" math="0" shadow="0">
      <root>
        <mxCell id="WIyWlLk6GJQsqaUBKTNV-0" />
        <mxCell id="WIyWlLk6GJQsqaUBKTNV-1" parent="WIyWlLk6GJQsqaUBKTNV-0" />
        <mxCell id="WIyWlLk6GJQsqaUBKTNV-2" value="" style="rounded=0;html=1;jettySize=auto;orthogonalLoop=1;fontSize=11;endArrow=block;endFill=0;endSize=8;strokeWidth=1;shadow=0;labelBackgroundColor=none;edgeStyle=orthogonalEdgeStyle;" parent="WIyWlLk6GJQsqaUBKTNV-1" source="WIyWlLk6GJQsqaUBKTNV-3" target="WIyWlLk6GJQsqaUBKTNV-6" edge="1">
          <mxGeometry relative="1" as="geometry" />
        </mxCell>
        <mxCell id="WIyWlLk6GJQsqaUBKTNV-3" value="Make new cell" style="rounded=1;whiteSpace=wrap;html=1;fontSize=12;glass=0;strokeWidth=1;shadow=0;" parent="WIyWlLk6GJQsqaUBKTNV-1" vertex="1">
          <mxGeometry x="370" y="130" width="120" height="40" as="geometry" />
        </mxCell>
        <mxCell id="WIyWlLk6GJQsqaUBKTNV-4" value="Yes" style="rounded=0;html=1;jettySize=auto;orthogonalLoop=1;fontSize=11;endArrow=block;endFill=0;endSize=8;strokeWidth=1;shadow=0;labelBackgroundColor=none;edgeStyle=orthogonalEdgeStyle;" parent="WIyWlLk6GJQsqaUBKTNV-1" source="WIyWlLk6GJQsqaUBKTNV-6" target="WIyWlLk6GJQsqaUBKTNV-10" edge="1">
          <mxGeometry y="20" relative="1" as="geometry">
            <mxPoint as="offset" />
          </mxGeometry>
        </mxCell>
        <mxCell id="WIyWlLk6GJQsqaUBKTNV-5" value="No" style="edgeStyle=orthogonalEdgeStyle;rounded=0;html=1;jettySize=auto;orthogonalLoop=1;fontSize=11;endArrow=block;endFill=0;endSize=8;strokeWidth=1;shadow=0;labelBackgroundColor=none;" parent="WIyWlLk6GJQsqaUBKTNV-1" source="WIyWlLk6GJQsqaUBKTNV-6" target="WIyWlLk6GJQsqaUBKTNV-7" edge="1">
          <mxGeometry y="10" relative="1" as="geometry">
            <mxPoint as="offset" />
          </mxGeometry>
        </mxCell>
        <mxCell id="WIyWlLk6GJQsqaUBKTNV-6" value="Is index valid ?" style="rhombus;whiteSpace=wrap;html=1;shadow=0;fontFamily=Helvetica;fontSize=12;align=center;strokeWidth=1;spacing=6;spacingTop=-4;" parent="WIyWlLk6GJQsqaUBKTNV-1" vertex="1">
          <mxGeometry x="380" y="200" width="100" height="80" as="geometry" />
        </mxCell>
        <mxCell id="WIyWlLk6GJQsqaUBKTNV-7" value="InvalidPositionException" style="rounded=1;whiteSpace=wrap;html=1;fontSize=12;glass=0;strokeWidth=1;shadow=0;" parent="WIyWlLk6GJQsqaUBKTNV-1" vertex="1">
          <mxGeometry x="600" y="220" width="140" height="40" as="geometry" />
        </mxCell>
        <mxCell id="WIyWlLk6GJQsqaUBKTNV-8" value="Yes&lt;br&gt;" style="rounded=0;html=1;jettySize=auto;orthogonalLoop=1;fontSize=11;endArrow=block;endFill=0;endSize=8;strokeWidth=1;shadow=0;labelBackgroundColor=none;edgeStyle=orthogonalEdgeStyle;entryX=0.5;entryY=0;entryDx=0;entryDy=0;" parent="WIyWlLk6GJQsqaUBKTNV-1" source="WIyWlLk6GJQsqaUBKTNV-10" target="FnN57RjQfBpvI7fIqtAj-0" edge="1">
          <mxGeometry x="0.3333" y="20" relative="1" as="geometry">
            <mxPoint as="offset" />
            <mxPoint x="430" y="460" as="targetPoint" />
          </mxGeometry>
        </mxCell>
        <mxCell id="WIyWlLk6GJQsqaUBKTNV-9" value="No&lt;br&gt;" style="edgeStyle=orthogonalEdgeStyle;rounded=0;html=1;jettySize=auto;orthogonalLoop=1;fontSize=11;endArrow=block;endFill=0;endSize=8;strokeWidth=1;shadow=0;labelBackgroundColor=none;" parent="WIyWlLk6GJQsqaUBKTNV-1" source="WIyWlLk6GJQsqaUBKTNV-10" target="WIyWlLk6GJQsqaUBKTNV-12" edge="1">
          <mxGeometry y="10" relative="1" as="geometry">
            <mxPoint as="offset" />
          </mxGeometry>
        </mxCell>
        <mxCell id="WIyWlLk6GJQsqaUBKTNV-10" value="Is cell created ?" style="rhombus;whiteSpace=wrap;html=1;shadow=0;fontFamily=Helvetica;fontSize=12;align=center;strokeWidth=1;spacing=6;spacingTop=-4;" parent="WIyWlLk6GJQsqaUBKTNV-1" vertex="1">
          <mxGeometry x="375" y="300" width="110" height="90" as="geometry" />
        </mxCell>
        <mxCell id="WIyWlLk6GJQsqaUBKTNV-12" value="End&lt;br&gt;" style="rounded=1;whiteSpace=wrap;html=1;fontSize=12;glass=0;strokeWidth=1;shadow=0;" parent="WIyWlLk6GJQsqaUBKTNV-1" vertex="1">
          <mxGeometry x="30" y="325" width="120" height="40" as="geometry" />
        </mxCell>
        <mxCell id="FnN57RjQfBpvI7fIqtAj-1" style="edgeStyle=orthogonalEdgeStyle;rounded=0;orthogonalLoop=1;jettySize=auto;html=1;exitX=1;exitY=0.5;exitDx=0;exitDy=0;" edge="1" parent="WIyWlLk6GJQsqaUBKTNV-1">
          <mxGeometry relative="1" as="geometry">
            <mxPoint x="600" y="455.1428571428571" as="targetPoint" />
            <mxPoint x="485" y="455" as="sourcePoint" />
          </mxGeometry>
        </mxCell>
        <mxCell id="FnN57RjQfBpvI7fIqtAj-2" value="Yes&lt;br&gt;" style="edgeLabel;html=1;align=center;verticalAlign=middle;resizable=0;points=[];" vertex="1" connectable="0" parent="FnN57RjQfBpvI7fIqtAj-1">
          <mxGeometry x="-0.1669" y="2" relative="1" as="geometry">
            <mxPoint as="offset" />
          </mxGeometry>
        </mxCell>
        <mxCell id="FnN57RjQfBpvI7fIqtAj-4" style="edgeStyle=orthogonalEdgeStyle;rounded=0;orthogonalLoop=1;jettySize=auto;html=1;exitX=0.5;exitY=1;exitDx=0;exitDy=0;" edge="1" parent="WIyWlLk6GJQsqaUBKTNV-1" source="FnN57RjQfBpvI7fIqtAj-0" target="FnN57RjQfBpvI7fIqtAj-5">
          <mxGeometry relative="1" as="geometry">
            <mxPoint x="429.9310344827586" y="520" as="targetPoint" />
          </mxGeometry>
        </mxCell>
        <mxCell id="FnN57RjQfBpvI7fIqtAj-0" value="Cell calculation error" style="rhombus;whiteSpace=wrap;html=1;shadow=0;fontFamily=Helvetica;fontSize=12;align=center;strokeWidth=1;spacing=6;spacingTop=-4;" vertex="1" parent="WIyWlLk6GJQsqaUBKTNV-1">
          <mxGeometry x="375" y="410" width="110" height="90" as="geometry" />
        </mxCell>
        <mxCell id="FnN57RjQfBpvI7fIqtAj-3" value="FormulaError" style="rounded=1;whiteSpace=wrap;html=1;fontSize=12;glass=0;strokeWidth=1;shadow=0;" vertex="1" parent="WIyWlLk6GJQsqaUBKTNV-1">
          <mxGeometry x="600" y="435" width="120" height="40" as="geometry" />
        </mxCell>
        <mxCell id="FnN57RjQfBpvI7fIqtAj-6" style="edgeStyle=orthogonalEdgeStyle;rounded=0;orthogonalLoop=1;jettySize=auto;html=1;exitX=0.5;exitY=1;exitDx=0;exitDy=0;" edge="1" parent="WIyWlLk6GJQsqaUBKTNV-1" source="FnN57RjQfBpvI7fIqtAj-5" target="FnN57RjQfBpvI7fIqtAj-7">
          <mxGeometry relative="1" as="geometry">
            <mxPoint x="429.9310344827586" y="620" as="targetPoint" />
          </mxGeometry>
        </mxCell>
        <mxCell id="FnN57RjQfBpvI7fIqtAj-5" value="Search for cyclic dependencies&amp;nbsp;" style="rounded=1;whiteSpace=wrap;html=1;" vertex="1" parent="WIyWlLk6GJQsqaUBKTNV-1">
          <mxGeometry x="370.0010344827586" y="525" width="120" height="60" as="geometry" />
        </mxCell>
        <mxCell id="FnN57RjQfBpvI7fIqtAj-9" value="" style="edgeStyle=orthogonalEdgeStyle;rounded=0;orthogonalLoop=1;jettySize=auto;html=1;" edge="1" parent="WIyWlLk6GJQsqaUBKTNV-1" source="FnN57RjQfBpvI7fIqtAj-7" target="FnN57RjQfBpvI7fIqtAj-10">
          <mxGeometry relative="1" as="geometry">
            <mxPoint x="610.0010344827585" y="640" as="targetPoint" />
          </mxGeometry>
        </mxCell>
        <mxCell id="FnN57RjQfBpvI7fIqtAj-11" value="Yes&lt;br&gt;" style="edgeLabel;html=1;align=center;verticalAlign=middle;resizable=0;points=[];" vertex="1" connectable="0" parent="FnN57RjQfBpvI7fIqtAj-9">
          <mxGeometry x="-0.2478" y="1" relative="1" as="geometry">
            <mxPoint as="offset" />
          </mxGeometry>
        </mxCell>
        <mxCell id="FnN57RjQfBpvI7fIqtAj-12" value="No&lt;br&gt;" style="edgeStyle=orthogonalEdgeStyle;rounded=0;orthogonalLoop=1;jettySize=auto;html=1;" edge="1" parent="WIyWlLk6GJQsqaUBKTNV-1" source="FnN57RjQfBpvI7fIqtAj-7" target="FnN57RjQfBpvI7fIqtAj-13">
          <mxGeometry relative="1" as="geometry">
            <mxPoint x="260" y="640" as="targetPoint" />
          </mxGeometry>
        </mxCell>
        <mxCell id="FnN57RjQfBpvI7fIqtAj-7" value="Is there cycle&amp;nbsp;" style="rhombus;whiteSpace=wrap;html=1;" vertex="1" parent="WIyWlLk6GJQsqaUBKTNV-1">
          <mxGeometry x="390.0010344827586" y="600" width="80" height="80" as="geometry" />
        </mxCell>
        <mxCell id="FnN57RjQfBpvI7fIqtAj-10" value="CircularDependencyException" style="rounded=1;whiteSpace=wrap;html=1;" vertex="1" parent="WIyWlLk6GJQsqaUBKTNV-1">
          <mxGeometry x="600" y="610" width="180" height="60" as="geometry" />
        </mxCell>
        <mxCell id="FnN57RjQfBpvI7fIqtAj-14" style="edgeStyle=orthogonalEdgeStyle;rounded=0;orthogonalLoop=1;jettySize=auto;html=1;" edge="1" parent="WIyWlLk6GJQsqaUBKTNV-1" source="FnN57RjQfBpvI7fIqtAj-13" target="FnN57RjQfBpvI7fIqtAj-15">
          <mxGeometry relative="1" as="geometry">
            <mxPoint x="200" y="740" as="targetPoint" />
          </mxGeometry>
        </mxCell>
        <mxCell id="FnN57RjQfBpvI7fIqtAj-13" value="Add temp cell to the sheet&amp;nbsp;" style="rounded=1;whiteSpace=wrap;html=1;" vertex="1" parent="WIyWlLk6GJQsqaUBKTNV-1">
          <mxGeometry x="140" y="610" width="120" height="60" as="geometry" />
        </mxCell>
        <mxCell id="FnN57RjQfBpvI7fIqtAj-16" style="edgeStyle=orthogonalEdgeStyle;rounded=0;orthogonalLoop=1;jettySize=auto;html=1;" edge="1" parent="WIyWlLk6GJQsqaUBKTNV-1" source="FnN57RjQfBpvI7fIqtAj-15" target="FnN57RjQfBpvI7fIqtAj-17">
          <mxGeometry relative="1" as="geometry">
            <mxPoint x="200" y="830" as="targetPoint" />
          </mxGeometry>
        </mxCell>
        <mxCell id="FnN57RjQfBpvI7fIqtAj-15" value="Destroy temp cell / Invalidade cache" style="rounded=1;whiteSpace=wrap;html=1;" vertex="1" parent="WIyWlLk6GJQsqaUBKTNV-1">
          <mxGeometry x="140" y="710" width="120" height="60" as="geometry" />
        </mxCell>
        <mxCell id="FnN57RjQfBpvI7fIqtAj-18" value="Yes&amp;nbsp;" style="edgeStyle=orthogonalEdgeStyle;rounded=0;orthogonalLoop=1;jettySize=auto;html=1;exitX=1;exitY=0.5;exitDx=0;exitDy=0;" edge="1" parent="WIyWlLk6GJQsqaUBKTNV-1" source="FnN57RjQfBpvI7fIqtAj-17" target="FnN57RjQfBpvI7fIqtAj-20">
          <mxGeometry relative="1" as="geometry">
            <mxPoint x="290" y="849.9310344827586" as="targetPoint" />
          </mxGeometry>
        </mxCell>
        <mxCell id="FnN57RjQfBpvI7fIqtAj-19" value="No&lt;br&gt;" style="edgeStyle=orthogonalEdgeStyle;rounded=0;orthogonalLoop=1;jettySize=auto;html=1;exitX=0;exitY=0.5;exitDx=0;exitDy=0;" edge="1" parent="WIyWlLk6GJQsqaUBKTNV-1" source="FnN57RjQfBpvI7fIqtAj-17" target="WIyWlLk6GJQsqaUBKTNV-12">
          <mxGeometry relative="1" as="geometry">
            <mxPoint x="80" y="849.9310344827586" as="targetPoint" />
          </mxGeometry>
        </mxCell>
        <mxCell id="FnN57RjQfBpvI7fIqtAj-17" value="Invalidation exception" style="rhombus;whiteSpace=wrap;html=1;" vertex="1" parent="WIyWlLk6GJQsqaUBKTNV-1">
          <mxGeometry x="160" y="810" width="80" height="80" as="geometry" />
        </mxCell>
        <mxCell id="FnN57RjQfBpvI7fIqtAj-20" value="Throw an exception" style="rounded=1;whiteSpace=wrap;html=1;" vertex="1" parent="WIyWlLk6GJQsqaUBKTNV-1">
          <mxGeometry x="320" y="820.0010344827587" width="120" height="60" as="geometry" />
        </mxCell>
      </root>
    </mxGraphModel>
  </diagram>
</mxfile>
